<svg width="65" height="64" viewBox="0 0 65 64" fill="none" xmlns="http://www.w3.org/2000/svg">
<rect x="0.879883" width="64" height="64" rx="32" fill="white"/>
<g clip-path="url(#clip0_2037_6761)">
<path fill-rule="evenodd" clip-rule="evenodd" d="M19.9201 45.5627H45.6801C46.1681 45.5627 46.6361 45.7544 46.9812 46.0955C47.3262 46.4366 47.5201 46.8993 47.5201 47.3817C47.5201 47.8641 47.3262 48.3268 46.9812 48.6679C46.6361 49.009 46.1681 49.2006 45.6801 49.2006H19.9201C19.4321 49.2006 18.9641 49.009 18.619 48.6679C18.2739 48.3268 18.0801 47.8641 18.0801 47.3817C18.0801 46.8993 18.2739 46.4366 18.619 46.0955C18.9641 45.7544 19.4321 45.5627 19.9201 45.5627ZM34.6401 34.9674L40.6072 29.0703L43.209 31.6423L32.8001 41.9321L22.3912 31.6423L24.993 29.0703L30.9601 34.9674V14.6406H34.6401V34.9674Z" fill="#13B791"/>
</g>
<defs>
<clipPath id="clip0_2037_6761">
<rect width="35.84" height="35.84" fill="white" transform="translate(14.8799 14)"/>
</clipPath>
</defs>
</svg>
