<svg width="96" height="96" viewBox="0 0 96 96" fill="none" xmlns="http://www.w3.org/2000/svg">
<path d="M65.7057 42.4872C66.38 36.0571 64.9312 29.5831 61.5806 24.0537C58.2299 18.5244 53.1616 14.2436 47.1496 11.8653C41.1377 9.48688 34.5125 9.14159 28.2858 10.8821C22.0592 12.6226 16.5733 16.3533 12.666 21.5044C8.75875 26.6554 6.64478 32.9438 6.64698 39.4091C6.64918 45.8745 8.76741 52.1614 12.6782 57.3098C16.589 62.4582 22.0774 66.1852 28.3052 67.9215C34.533 69.6577 41.158 69.3079 47.1683 66.9255L36.2571 39.3991L65.7057 42.4872Z" fill="white"/>
<g clip-path="url(#clip0_2037_8233)">
<path d="M40.89 43.2378C40.7327 43.4599 40.6464 43.7245 40.6425 43.9967C40.6387 44.2688 40.7174 44.5358 40.8684 44.7623L61.6306 75.9786C61.7757 76.197 61.9814 76.3682 62.2225 76.4712C62.4636 76.5743 62.7295 76.6047 62.9875 76.5587C63.2456 76.5127 63.4847 76.3923 63.6753 76.2124C63.866 76.0324 63.9999 75.8007 64.0606 75.5457L67.3225 61.9771L79.0486 54.4046C79.2681 54.2624 79.4415 54.0593 79.5474 53.8201C79.6533 53.5809 79.6872 53.3161 79.645 53.0579C79.6028 52.7998 79.4862 52.5595 79.3096 52.3665C79.133 52.1736 78.904 52.0363 78.6506 51.9714L42.3214 42.7128C42.0582 42.6458 41.7808 42.66 41.5258 42.7537C41.2708 42.8473 41.0474 43.0164 40.89 43.2378Z" fill="white"/>
</g>
<defs>
<clipPath id="clip0_2037_8233">
<rect width="46.6696" height="46.6696" fill="white" transform="translate(34.6191 38.7695) rotate(-9.753)"/>
</clipPath>
</defs>
</svg>
