<svg width="77" height="76" viewBox="0 0 77 76" fill="none" xmlns="http://www.w3.org/2000/svg">
<g clip-path="url(#clip0_2037_6454)">
<rect x="0.820312" y="0.576172" width="75.4328" height="75.4328" rx="37.7164" fill="#FFDE00"/>
<path d="M49.545 51.5524C49.5456 51.2157 49.4797 50.8821 49.3511 50.5709C49.2225 50.2597 49.0338 49.977 48.7957 49.7389C48.5576 49.5008 48.2748 49.312 47.9636 49.1834C47.6524 49.0548 47.3189 48.9889 46.9821 48.9895L31.4572 48.9895L53.6184 26.8283C54.0982 26.3485 54.3678 25.6978 54.3678 25.0192C54.3678 24.3407 54.0982 23.6899 53.6184 23.2101C53.1386 22.7304 52.4879 22.4608 51.8094 22.4608C51.1308 22.4608 50.4801 22.7304 50.0003 23.2101L27.8391 45.3714L27.836 29.8434C27.836 29.1637 27.566 28.5119 27.0854 28.0312C26.6048 27.5506 25.9529 27.2806 25.2732 27.2806C24.5935 27.2806 23.9416 27.5506 23.461 28.0312C22.9803 28.5119 22.7103 29.1637 22.7103 29.8434L22.7103 51.5524C22.7097 51.8891 22.7756 52.2226 22.9042 52.5338C23.0328 52.8451 23.2216 53.1278 23.4597 53.3659C23.6978 53.604 23.9805 53.7928 24.2917 53.9214C24.6029 54.0499 24.9365 54.1158 25.2732 54.1153L46.9821 54.1153C47.3189 54.1158 47.6524 54.0499 47.9636 53.9214C48.2748 53.7928 48.5576 53.604 48.7957 53.3659C49.0338 53.1278 49.2225 52.8451 49.3511 52.5338C49.4797 52.2226 49.5456 51.8891 49.545 51.5524Z" fill="#464646"/>
</g>
<defs>
<clipPath id="clip0_2037_6454">
<rect x="0.820312" y="0.576172" width="75.4328" height="75.4328" rx="37.7164" fill="white"/>
</clipPath>
</defs>
</svg>
