<svg width="144" height="31" viewBox="0 0 144 31" fill="none" xmlns="http://www.w3.org/2000/svg">
<path d="M17.8627 7.90909C17.6901 6.4517 16.9902 5.32031 15.7629 4.51491C14.5356 3.70952 13.0303 3.30682 11.2469 3.30682C9.94293 3.30682 8.80195 3.51775 7.82397 3.93963C6.85557 4.3615 6.09811 4.94158 5.55159 5.67986C5.01466 6.41815 4.7462 7.2571 4.7462 8.19673C4.7462 8.98295 4.93316 9.65891 5.3071 10.2246C5.69062 10.7807 6.17961 11.2457 6.77407 11.6197C7.36853 11.984 7.99176 12.286 8.64375 12.5257C9.29573 12.7559 9.89499 12.9428 10.4415 13.0866L13.433 13.892C14.2 14.0934 15.0534 14.3714 15.993 14.7262C16.9422 15.081 17.8483 15.5652 18.7112 16.1788C19.5837 16.7828 20.3028 17.5595 20.8685 18.5087C21.4342 19.4579 21.7171 20.6229 21.7171 22.0036C21.7171 23.5952 21.3 25.0334 20.4658 26.3182C19.6413 27.603 18.4332 28.6241 16.8415 29.3816C15.2595 30.139 13.3371 30.5178 11.0743 30.5178C8.96495 30.5178 7.13842 30.1774 5.59474 29.4966C4.06065 28.8159 2.85255 27.8667 1.97045 26.649C1.09794 25.4313 0.604151 24.017 0.489094 22.4062H4.17091C4.26679 23.5185 4.64073 24.4389 5.29272 25.1676C5.95429 25.8867 6.78846 26.4237 7.7952 26.7784C8.81154 27.1236 9.90458 27.2962 11.0743 27.2962C12.4358 27.2962 13.6583 27.0756 14.7418 26.6346C15.8252 26.1839 16.6833 25.5607 17.3162 24.7649C17.949 23.9595 18.2654 23.0199 18.2654 21.946C18.2654 20.968 17.9921 20.1722 17.4456 19.5586C16.8991 18.945 16.18 18.4464 15.2883 18.0629C14.3966 17.6793 13.433 17.3437 12.3975 17.0561L8.77319 16.0206C6.47205 15.359 4.65032 14.4146 3.30799 13.1873C1.96566 11.96 1.29449 10.354 1.29449 8.36932C1.29449 6.72017 1.74034 5.28196 2.63203 4.05469C3.53331 2.81783 4.7414 1.85902 6.25632 1.17827C7.78082 0.487925 9.4827 0.142755 11.362 0.142755C13.2604 0.142755 14.9479 0.483131 16.4245 1.16388C17.901 1.83505 19.0708 2.7555 19.9337 3.92525C20.8062 5.09499 21.2664 6.42294 21.3144 7.90909H17.8627ZM32.4414 30V0.545454H42.3938C44.7045 0.545454 46.5934 0.962534 48.0603 1.7967C49.5369 2.62127 50.6299 3.73828 51.3395 5.14773C52.049 6.55717 52.4037 8.12962 52.4037 9.86506C52.4037 11.6005 52.049 13.1777 51.3395 14.5968C50.6395 16.0158 49.5561 17.1472 48.0891 17.9909C46.6221 18.8251 44.7429 19.2422 42.4513 19.2422H35.3178V16.0781H42.3363C43.9183 16.0781 45.1887 15.8049 46.1475 15.2583C47.1063 14.7118 47.8015 13.9735 48.2329 13.0435C48.674 12.1039 48.8945 11.0444 48.8945 9.86506C48.8945 8.68572 48.674 7.63104 48.2329 6.70099C47.8015 5.77095 47.1015 5.04226 46.1331 4.51491C45.1647 3.97798 43.8799 3.70952 42.2787 3.70952H36.0081V30H32.4414ZM61.2116 30H57.4723L68.2876 0.545454H71.9694L82.7848 30H79.0454L70.2436 5.20525H70.0135L61.2116 30ZM62.5923 18.4943H77.6648V21.6584H62.5923V18.4943ZM114.55 9.75H110.983C110.772 8.72408 110.403 7.8228 109.876 7.04616C109.358 6.26953 108.725 5.61754 107.977 5.0902C107.239 4.55327 106.419 4.15057 105.518 3.8821C104.617 3.61364 103.677 3.4794 102.699 3.4794C100.916 3.4794 99.3003 3.93004 97.8525 4.83132C96.4143 5.7326 95.2685 7.06055 94.4152 8.81516C93.5714 10.5698 93.1495 12.7223 93.1495 15.2727C93.1495 17.8232 93.5714 19.9757 94.4152 21.7303C95.2685 23.4849 96.4143 24.8129 97.8525 25.7141C99.3003 26.6154 100.916 27.0661 102.699 27.0661C103.677 27.0661 104.617 26.9318 105.518 26.6634C106.419 26.3949 107.239 25.997 107.977 25.4696C108.725 24.9327 109.358 24.2759 109.876 23.4993C110.403 22.7131 110.772 21.8118 110.983 20.7955H114.55C114.282 22.3008 113.793 23.6479 113.083 24.8368C112.374 26.0257 111.492 27.0373 110.437 27.8714C109.382 28.696 108.198 29.324 106.884 29.7555C105.58 30.187 104.185 30.4027 102.699 30.4027C100.187 30.4027 97.9532 29.7891 95.9972 28.5618C94.0412 27.3345 92.5023 25.5895 91.3805 23.3267C90.2587 21.0639 89.6978 18.3793 89.6978 15.2727C89.6978 12.1662 90.2587 9.48153 91.3805 7.21875C92.5023 4.95597 94.0412 3.21094 95.9972 1.98366C97.9532 0.756391 100.187 0.142755 102.699 0.142755C104.185 0.142755 105.58 0.358486 106.884 0.78995C108.198 1.22141 109.382 1.85423 110.437 2.68839C111.492 3.51296 112.374 4.51971 113.083 5.70863C113.793 6.88796 114.282 8.23508 114.55 9.75ZM125.174 30V0.545454H142.95V3.70952H128.74V13.6619H142.03V16.826H128.74V26.8359H143.18V30H125.174Z" fill="#343434"/>
</svg>
