<svg width="32" height="32" viewBox="0 0 32 32" fill="none" xmlns="http://www.w3.org/2000/svg">
<g clip-path="url(#clip0_2037_6884)">
<path d="M0.682461 15.8071C0.681711 18.4957 1.38971 21.121 2.73596 23.4349L0.553711 31.3409L8.70771 29.2194C10.963 30.4377 13.4899 31.076 16.0577 31.0762H16.0645C24.5413 31.0762 31.4417 24.2318 31.4453 15.8191C31.447 11.7426 29.8485 7.90929 26.9442 5.02532C24.0405 2.1416 20.1786 0.552642 16.0638 0.550781C7.58596 0.550781 0.686086 7.39481 0.682586 15.8071" fill="url(#paint0_linear_2037_6884)"/>
<path d="M0.13375 15.856C0.132875 18.6506 0.86625 21.3787 2.2605 23.7834L0 32L8.44637 29.7953C10.7736 31.0585 13.3939 31.7245 16.0601 31.7255H16.067C24.848 31.7255 31.9963 24.6114 32 15.8687C32.0015 11.6316 30.3455 7.64736 27.3375 4.65016C24.3291 1.65334 20.3291 0.00174219 16.067 0C7.2845 0 0.13725 7.11313 0.13375 15.856ZM5.16388 23.3693L4.8485 22.8709C3.52275 20.7723 2.823 18.3472 2.824 15.857C2.82675 8.59014 8.76725 2.678 16.072 2.678C19.6095 2.67949 22.934 4.05234 25.4345 6.54318C27.9349 9.03427 29.3108 12.3457 29.3099 15.8677C29.3066 23.1345 23.366 29.0474 16.067 29.0474H16.0618C13.6851 29.0461 11.3542 28.4107 9.3215 27.21L8.83775 26.9244L3.8255 28.2326L5.16388 23.3693Z" fill="url(#paint1_linear_2037_6884)"/>
<path d="M12.0845 9.19564C11.7862 8.5379 11.4723 8.52463 11.1887 8.5131C10.9565 8.50317 10.691 8.50392 10.4257 8.50392C10.1602 8.50392 9.72883 8.60302 9.3642 8.99806C8.9992 9.39347 7.9707 10.349 7.9707 12.2924C7.9707 14.236 9.39733 16.1142 9.5962 16.378C9.79533 16.6413 12.3503 20.7572 16.3968 22.3406C19.7598 23.6564 20.4442 23.3947 21.1741 23.3287C21.9041 23.263 23.5296 22.3734 23.8612 21.451C24.1931 20.5287 24.1931 19.7382 24.0936 19.5729C23.9941 19.4084 23.7286 19.3095 23.3305 19.112C22.9322 18.9145 20.975 17.9588 20.6101 17.827C20.2451 17.6952 19.9797 17.6295 19.7142 18.025C19.4487 18.4199 18.6863 19.3095 18.454 19.5729C18.2218 19.837 17.9895 19.8699 17.5915 19.6723C17.1931 19.4741 15.911 19.0575 14.3898 17.7119C13.2063 16.6648 12.4073 15.3718 12.1751 14.9762C11.9428 14.5813 12.1502 14.3672 12.3498 14.1704C12.5287 13.9934 12.7481 13.7091 12.9473 13.4786C13.1458 13.2479 13.2121 13.0833 13.3448 12.8198C13.4777 12.5561 13.4112 12.3254 13.3118 12.1279C13.2121 11.9303 12.4385 9.97666 12.0845 9.19564Z" fill="white"/>
</g>
<defs>
<linearGradient id="paint0_linear_2037_6884" x1="1545.14" y1="3079.56" x2="1545.14" y2="0.550781" gradientUnits="userSpaceOnUse">
<stop stop-color="#1FAF38"/>
<stop offset="1" stop-color="#60D669"/>
</linearGradient>
<linearGradient id="paint1_linear_2037_6884" x1="1600" y1="3200" x2="1600" y2="0" gradientUnits="userSpaceOnUse">
<stop stop-color="#F9F9F9"/>
<stop offset="1" stop-color="white"/>
</linearGradient>
<clipPath id="clip0_2037_6884">
<rect width="32" height="32" fill="white"/>
</clipPath>
</defs>
</svg>
